<svg width="300" height="294" viewBox="0 0 300 294" fill="none" xmlns="http://www.w3.org/2000/svg">
<g clip-path="url(#clip0_5_7)">
<path opacity="0.1" d="M155.16 52.874C136.214 57.6774 117.294 55.6182 99.0936 52.623C80.8931 49.6278 62.7378 45.7165 43.7834 46.8955C31.5904 47.6523 18.0117 51.2768 9.49817 61.8118C1.30318 71.9445 0.0262795 85.6181 0.0103514 97.9613C-0.010886 107.246 0.525359 116.853 4.91089 124.249C7.95846 129.379 12.6493 133.055 16.1827 137.791C28.4765 154.241 24.7387 180.142 16.6711 202.164C12.8855 212.496 8.25578 222.657 5.67809 233.231C3.1004 243.806 2.75794 255.138 7.37178 263.761C11.9431 272.312 20.7859 277.132 30.0056 279.629C48.7317 284.704 69.5948 281.553 89.781 277.283C134.457 267.8 178.67 253.015 222.788 238.266C239.112 232.805 255.507 227.321 271.234 219.45C279.968 215.069 288.861 209.616 294.502 201.129C301.67 190.375 301.85 175.665 294.943 166.875C283.352 152.138 257.119 155.408 248.154 138.56C243.221 129.284 245.369 116.685 249.295 105.557C257.713 81.6908 273.984 58.1116 271.876 34.3172C270.421 17.987 259.322 4.47275 244.445 0.951791C228.852 -2.73645 208.825 4.25767 199.847 20.6915C190.616 37.6231 171.89 48.6201 155.16 52.874Z" fill="#5661B3"/>
<path d="M170.81 143.085H95.5684V169.225H170.81V143.085Z" fill="#565661"/>
<path opacity="0.1" d="M170.81 143.085H95.5684V169.225H170.81V143.085Z" fill="black"/>
<path d="M104.57 170.085L105.099 239.871L97.8619 267.282L97.3018 170.085H104.57Z" fill="#BCBEC9"/>
<path d="M96.3623 148.104L169.618 148.765V168.234H96.3623V148.104Z" fill="#565661"/>
<path d="M163.351 170.085L169.618 171.412V266.223L163.351 237.223V170.085Z" fill="#BCBEC9"/>
<path d="M207.304 144.132H171.999V256.691H207.304V144.132Z" fill="#EFEFF0"/>
<path d="M204.48 147.259H174.824V233.781H204.48V147.259Z" fill="#565661"/>
<path opacity="0.1" d="M204.48 147.259H174.824V233.781H204.48V147.259Z" fill="black"/>
<path d="M204.48 149.031H174.824V168.233H204.48V149.031Z" fill="#565661"/>
<path d="M204.48 170.085H174.824V210.871H204.48V170.085Z" fill="#565661"/>
<path d="M204.48 213.388H174.824V254.174H204.48V213.388Z" fill="#565661"/>
<path opacity="0.1" d="M204.48 213.388H174.824V254.174H204.48V213.388Z" fill="black"/>
<path d="M176.061 264.02C177.116 264.02 177.972 262.38 177.972 260.356C177.972 258.332 177.116 256.691 176.061 256.691C175.005 256.691 174.149 258.332 174.149 260.356C174.149 262.38 175.005 264.02 176.061 264.02Z" fill="#565661"/>
<path d="M202.568 264.195C203.623 264.195 204.479 262.555 204.479 260.531C204.479 258.507 203.623 256.867 202.568 256.867C201.512 256.867 200.656 258.507 200.656 260.531C200.656 262.555 201.512 264.195 202.568 264.195Z" fill="#565661"/>
<path d="M95.3033 267.282H97.8624L97.1589 145.108H93.2725L95.3033 267.282Z" fill="#EFEFF0"/>
<path d="M169.618 144.132V266.223H171.999V145.108L169.618 144.132Z" fill="#EFEFF0"/>
<path d="M97.2832 167.039V171.412H169.618V168.233L97.2832 167.039Z" fill="#EFEFF0"/>
<path d="M102.186 135.923H193.889L207.216 142.543V146.383L92.8311 145.06V141.153L102.186 135.923Z" fill="white"/>
<path d="M92.8311 141.153L207.216 142.543V146.383L92.8311 145.06V141.153Z" fill="#BCBEC9"/>
<path d="M103.192 186.686L102.661 186.567C102.661 186.531 102.661 186.499 102.661 186.467C102.646 186.28 102.627 186.097 102.608 185.91C102.826 186.169 103.033 186.427 103.224 186.686H103.192Z" fill="url(#paint0_linear_5_7)"/>
<path d="M91.6559 248.188C92.001 248.068 92.3514 247.969 92.7019 247.897C95.1085 247.383 97.5629 247.925 99.7686 249.458C99.5456 251.92 99.3253 254.465 99.7978 256.843C100.127 258.516 100.788 260.029 100.929 261.774C101.283 261.865 101.614 262.103 101.883 262.46C102.153 262.818 102.351 263.281 102.455 263.797C102.557 264.254 102.608 264.733 102.606 265.215C102.604 265.811 102.554 266.405 102.458 266.983C102.426 267.446 102.274 267.871 102.036 268.168C101.798 268.466 101.492 268.612 101.184 268.577C99.1288 268.927 97.1139 267.712 95.2026 266.521L91.486 264.203C91.0506 263.933 90.6126 263.658 90.1958 263.323C89.4053 262.682 88.7034 261.821 88.1278 260.786C88.0061 260.601 87.9207 260.37 87.881 260.117C87.8119 259.416 88.3588 258.998 88.7066 258.524C88.8084 258.379 88.8976 258.216 88.972 258.038C89.3835 257.106 89.4233 255.819 89.6702 254.72C90.2542 252.111 92.0594 250.43 92.6965 247.885C92.7311 247.746 92.7629 247.606 92.7895 247.463" fill="#A26565"/>
<path opacity="0.1" d="M102.606 265.215C102.604 265.811 102.554 266.405 102.458 266.983C102.426 267.446 102.274 267.871 102.036 268.168C101.798 268.466 101.492 268.612 101.184 268.577C99.1288 268.927 97.1139 267.712 95.2026 266.521L91.486 264.203C91.0506 263.932 90.6126 263.658 90.1958 263.323C89.4053 262.682 88.7034 261.821 88.1278 260.786C88.0061 260.601 87.9207 260.37 87.881 260.117C87.8119 259.416 88.3588 258.997 88.7066 258.524C88.8084 258.379 88.8976 258.216 88.972 258.038C89.9967 258.368 91.2683 259.336 92.0515 259.71C92.8359 260.031 93.5891 260.504 94.292 261.116C95.2689 262.056 95.9724 263.506 96.8007 264.701C97.6289 265.896 98.6988 266.983 99.8536 266.836C100.464 266.698 101.053 266.393 101.59 265.936L102.606 265.215Z" fill="black"/>
<path d="M98.2548 208.613C98.3238 208.974 98.3176 209.358 98.2369 209.714C98.1563 210.07 98.005 210.381 97.8035 210.604C97.4557 210.927 97.0071 210.883 96.662 211.233C96.2346 211.683 96.1735 212.576 96.0992 213.348C95.8337 216.005 94.955 218.415 94.2037 220.856C93.4525 223.298 92.818 225.962 93.0941 228.615C93.2826 230.415 93.8719 232.335 93.3197 233.956C93.1843 234.355 92.9826 234.709 92.8286 235.095C92.072 236.991 92.5021 239.393 92.4729 241.6C92.4839 241.845 92.448 242.089 92.3693 242.305C92.2533 242.508 92.1105 242.674 91.9499 242.791C91.6804 243.088 91.459 243.472 91.3023 243.916C91.1456 244.359 91.0575 244.85 91.0447 245.352C91.0223 246.355 91.1029 247.357 91.2836 248.323C91.3128 248.713 91.4277 249.077 91.6101 249.358C91.8214 249.568 92.071 249.674 92.3242 249.661C93.992 249.864 95.628 250.461 97.1717 251.43C98.1778 252.059 99.1547 252.848 100.225 253.15C100.328 253.198 100.437 253.215 100.545 253.197C100.652 253.18 100.757 253.13 100.851 253.051C100.986 252.869 101.078 252.627 101.117 252.362C101.528 250.33 101.945 248.235 101.804 246.124C101.743 245.216 101.581 244.328 101.539 243.42C101.353 239.835 102.969 236.601 103.482 233.064C103.713 231.471 103.713 229.822 103.877 228.213C104.323 223.804 105.943 219.849 106.567 215.487C106.653 214.674 106.788 213.874 106.97 213.097C107.435 211.409 108.51 210.038 108.534 208.21C108.548 207.808 108.478 207.409 108.332 207.071C108.082 206.659 107.749 206.38 107.384 206.275C105.942 205.679 104.474 205.235 102.991 204.944C102.311 204.744 101.617 204.672 100.925 204.729C100.027 204.888 99.1637 205.345 98.3981 206.067C97.3734 207.015 98.0318 207.242 98.2548 208.613Z" fill="#454B69"/>
<path opacity="0.05" d="M98.2548 208.613C98.3238 208.974 98.3176 209.358 98.2369 209.714C98.1563 210.07 98.005 210.381 97.8035 210.604C97.4557 210.927 97.0071 210.883 96.662 211.233C96.2346 211.683 96.1735 212.576 96.0992 213.348C95.8337 216.005 94.955 218.415 94.2037 220.856C93.4525 223.298 92.818 225.962 93.0941 228.615C93.2826 230.415 93.8719 232.335 93.3197 233.956C93.1843 234.355 92.9826 234.709 92.8286 235.095C92.072 236.991 92.5021 239.393 92.4729 241.6C92.4839 241.845 92.448 242.089 92.3693 242.305C92.2533 242.508 92.1105 242.674 91.9499 242.791C91.6804 243.088 91.459 243.472 91.3023 243.916C91.1456 244.359 91.0575 244.85 91.0447 245.352C91.0223 246.355 91.1029 247.357 91.2836 248.323C91.3128 248.713 91.4277 249.077 91.6101 249.358C91.8214 249.568 92.071 249.674 92.3242 249.661C93.992 249.864 95.628 250.461 97.1717 251.43C98.1778 252.059 99.1547 252.848 100.225 253.15C100.328 253.198 100.437 253.215 100.545 253.197C100.652 253.18 100.757 253.13 100.851 253.051C100.986 252.869 101.078 252.627 101.117 252.362C101.528 250.33 101.945 248.235 101.804 246.124C101.743 245.216 101.581 244.328 101.539 243.42C101.353 239.835 102.969 236.601 103.482 233.064C103.713 231.471 103.713 229.822 103.877 228.213C104.323 223.804 105.943 219.849 106.567 215.487C106.653 214.674 106.788 213.874 106.97 213.097C107.435 211.409 108.51 210.038 108.534 208.21C108.548 207.808 108.478 207.409 108.332 207.071C108.082 206.659 107.749 206.38 107.384 206.275C105.942 205.679 104.474 205.235 102.991 204.944C102.311 204.744 101.617 204.672 100.925 204.729C100.027 204.888 99.1637 205.345 98.3981 206.067C97.3734 207.015 98.0318 207.242 98.2548 208.613Z" fill="black"/>
<path d="M93.0602 268.64H90.7958L89.3145 222.979L89.2109 220.382L91.1356 219.367L91.2657 222.127L93.0602 268.64Z" fill="#565661"/>
<path opacity="0.1" d="M91.2657 222.127L89.3145 222.979L89.2109 220.382L91.1356 219.367L91.2657 222.127Z" fill="black"/>
<path d="M121.473 278.299L117.738 278.976L100.53 220.382L95.8898 219.872L87.74 223.441L86.1551 293.203H82.42L83.8907 220.892L74.9471 221.235L58.9871 280.844H55.5918L72.3773 211.178L73.0251 208.493L98.0401 207.207L104.276 212.452L104.356 212.755L121.473 278.299Z" fill="#565661"/>
<path opacity="0.1" d="M104.355 212.755C98.9795 215.184 93.3994 217.837 93.3994 217.837C93.3994 217.837 88.3103 220.502 86.1547 217.837C85.8829 217.519 85.5792 217.268 85.2548 217.092C85.5345 217.392 85.8365 217.642 86.1547 217.837L72.377 211.174L73.022 208.493L98.0397 207.207L104.276 212.452L104.355 212.755Z" fill="black"/>
<path d="M78.9102 201.192L89.0963 197.795C89.0963 197.795 113.434 204.59 115.245 207.306C115.245 207.306 95.7754 213.249 93.6251 215.272C91.4749 217.296 78.6819 219.534 78.9102 201.192Z" fill="white"/>
<path d="M74.53 163C73.7336 166.788 71.5594 170.201 68.9127 170.364C68.7202 170.398 68.5252 170.345 68.3526 170.213C68.0208 169.902 68.0128 169.173 68.1482 168.62C68.2836 168.066 68.5198 167.568 68.557 166.987C68.5649 166.868 68.5596 166.748 68.5411 166.632C68.4721 166.158 68.2146 165.736 67.9119 165.836C68.118 165.588 68.2553 165.234 68.297 164.843C68.3387 164.452 68.2819 164.052 68.1376 163.721C68.0174 163.517 67.9091 163.299 67.8137 163.067C67.5934 162.39 67.9358 161.63 68.0792 160.905C68.3738 159.311 67.6252 157.718 67.5642 156.057C67.5111 154.572 68.0128 153.174 68.1376 151.7C68.3367 149.31 67.5456 147.02 67.4527 144.634C67.389 142.969 67.6624 141.32 67.9677 139.715C68.2331 138.281 68.5331 136.831 68.5517 135.334C68.5517 134.247 68.4269 133.171 68.3924 132.088C68.3373 131.097 68.4573 130.103 68.7402 129.204C68.924 128.676 69.237 128.275 69.6136 128.085C70.4843 127.647 71.0551 128.328 71.1825 129.567C71.3949 131.674 71.2727 133.824 71.5515 135.939C71.8092 137.917 72.1997 139.851 72.7169 141.711C73.1868 143.391 73.7575 145.017 74.1186 146.757C74.3904 148.192 74.5848 149.657 74.6999 151.138C75.0557 155.117 75.3344 159.212 74.53 163Z" fill="#5661B3"/>
<path d="M134.993 259.404C134.657 260.114 134.225 260.71 133.725 261.152C133.225 261.594 132.668 261.872 132.091 261.969C130.939 262.184 129.742 261.75 128.624 262.224C128.451 262.266 128.288 262.373 128.149 262.533C128.01 262.694 127.899 262.904 127.828 263.144C127.8 263.467 127.783 263.793 127.777 264.12C127.647 265.183 126.715 265.422 125.991 265.414L123.001 265.386C122.38 265.386 121.693 265.334 121.247 264.689C121.035 264.337 120.915 263.881 120.91 263.406C120.905 262.931 121.015 262.47 121.22 262.108C121.313 261.943 121.427 261.808 121.555 261.71C121.368 261.617 121.202 261.449 121.076 261.223C120.949 260.997 120.867 260.723 120.838 260.431C120.784 259.846 120.802 259.25 120.894 258.675C120.894 257.01 121.159 254.222 121.94 252.919C122.898 251.298 124.56 249.203 126.007 248.769C126.495 248.629 126.999 248.662 127.477 248.866C127.956 249.07 128.396 249.439 128.762 249.944C129.447 250.9 129.946 252.398 130.886 252.565C131.398 252.66 131.892 252.298 132.399 252.167C132.975 252.055 133.56 252.214 134.074 252.621C134.588 253.028 135.005 253.664 135.269 254.441C135.397 254.835 135.487 255.255 135.534 255.688C135.674 256.984 135.481 258.313 134.993 259.404Z" fill="#A26565"/>
<path opacity="0.1" d="M134.993 259.404C134.657 260.114 134.225 260.71 133.725 261.152C133.225 261.594 132.668 261.872 132.091 261.969C130.939 262.184 129.742 261.75 128.624 262.224C128.451 262.267 128.288 262.373 128.149 262.534C128.01 262.694 127.9 262.904 127.828 263.144C127.8 263.468 127.783 263.794 127.777 264.12C127.647 265.183 126.715 265.422 125.991 265.414L123.002 265.386C122.38 265.386 121.693 265.335 121.247 264.689C121.035 264.337 120.915 263.881 120.91 263.406C120.905 262.932 121.016 262.47 121.22 262.108C122.946 262.001 124.642 262.108 126.362 261.575C127.061 261.364 127.748 261.085 128.454 260.937C129.983 260.611 131.611 260.89 133.015 259.918C134.186 259.121 135.025 257.5 135.521 255.692C135.665 256.985 135.476 258.312 134.993 259.404Z" fill="black"/>
<path d="M127.106 253.107C126.044 254.341 124.799 255.305 123.461 255.409C122.123 255.512 120.703 254.612 120.047 252.868C119.089 250.307 119.938 246.746 118.765 244.396C118.399 243.659 117.87 243.137 117.483 242.424C117.095 241.711 116.872 240.64 117.217 239.883C116.801 240.122 116.36 239.517 116.238 238.871C116.116 238.226 116.193 237.533 116.118 236.88C115.924 235.147 114.791 234.036 114.247 232.499C113.703 230.961 113.777 228.966 113.716 227.145C113.58 222.711 112.48 218.465 110.583 215.057C110.222 214.412 109.76 213.755 109.198 213.787C109.296 212.329 108.648 210.935 107.809 210.202C106.97 209.469 105.972 209.222 105 209.079C95.1967 207.629 84.9815 213.098 75.6211 208.497C73.0169 207.219 70.5056 205.08 68.9127 201.726C68.2923 200.45 67.8484 199 67.6072 197.462C67.3661 195.924 67.3325 194.33 67.5084 192.772V192.717C67.8774 189.889 68.8729 189.192 70.5215 187.901C72.4246 186.392 74.4138 185.14 76.4653 184.161C80.4473 182.293 84.7346 181.62 88.8441 182.99C90.7634 183.635 92.6137 184.703 94.5357 185.328C95.2923 185.575 96.0542 185.75 96.8214 185.898C98.0133 186.121 99.2106 186.268 100.411 186.475C104.247 187.138 108.026 188.413 111.682 190.279C113.044 190.972 114.406 191.765 115.577 193.019C116.503 194.028 117.286 195.304 117.88 196.771C118.474 198.239 118.868 199.869 119.038 201.567C119.15 202.738 119.153 203.957 119.322 205.092C119.483 206.046 119.697 206.978 119.96 207.88C122.228 216.294 124.081 224.947 125.505 233.769C125.586 234.424 125.736 235.056 125.949 235.641C126.288 236.466 126.872 237.019 127.215 237.844C128.011 239.787 127.244 242.5 127.95 244.523C128.194 245.224 128.601 245.778 128.845 246.479C129.641 248.777 128.465 251.525 127.106 253.107Z" fill="#454B69"/>
<path opacity="0.1" d="M113.541 207.342C113.918 206.894 114.244 206.356 114.505 205.749C114.766 205.139 114.87 204.407 114.797 203.69C114.9 204.597 114.861 205.527 114.681 206.407C114.502 207.287 114.188 208.091 113.764 208.756C113.098 209.78 111.847 210.784 110.873 210.433C111.011 209.262 112.922 208.131 113.541 207.342Z" fill="black"/>
<path opacity="0.1" d="M96.9543 187.491C96.8742 187.918 96.7245 188.308 96.5187 188.627C96.313 188.945 96.0576 189.182 95.7757 189.315C95.2096 189.575 94.6169 189.679 94.0262 189.622H93.4953C86.5294 189.391 79.4892 187.073 72.6853 189.283C71.8653 189.537 71.0608 189.893 70.2801 190.347C69.2856 190.935 68.3543 191.74 67.5166 192.736V192.681C67.8856 189.853 68.8811 189.156 70.5297 187.865C72.4311 186.369 74.4175 185.129 76.4655 184.161C80.4475 182.293 84.7349 181.62 88.8443 182.99C90.7636 183.635 92.6139 184.703 94.5359 185.328C95.2925 185.575 96.0544 185.75 96.8216 185.898C96.9704 186.397 97.0166 186.952 96.9543 187.491Z" fill="black"/>
<path d="M96.9538 186.921C96.8743 187.349 96.7248 187.74 96.519 188.06C96.3132 188.379 96.0575 188.616 95.7752 188.749C95.2092 189.01 94.6163 189.112 94.0257 189.052H93.4948C86.5289 188.821 79.4887 186.503 72.6848 188.714C71.8651 188.968 71.0607 189.322 70.2796 189.773C69.2381 190.396 68.2666 191.256 67.3993 192.322C67.1958 191.483 66.9931 190.643 66.7914 189.801C66.5471 188.797 67.3223 188.574 67.471 187.674C67.5692 187.065 67.4019 186.372 67.317 185.722C67.2952 185.563 67.281 185.402 67.2745 185.24C67.2267 183.803 67.5692 182.974 68.355 182.197C70.6858 179.887 73.5289 178.302 76.1889 177.111C77.6031 176.44 79.0639 176.015 80.5426 175.845C82.6345 175.661 84.7237 176.243 86.7599 176.98C89.2632 177.908 91.74 179.135 93.9594 181.098C95.0478 182.05 96.1096 183.245 96.6963 184.942C96.9305 185.538 97.0213 186.237 96.9538 186.921Z" fill="#A26565"/>
<path opacity="0.1" d="M74.5306 163C73.7342 166.787 71.56 170.201 68.9133 170.364C68.7207 170.398 68.5258 170.345 68.3532 170.213C68.0213 169.902 68.0134 169.173 68.1487 168.62C68.2841 168.066 68.5204 167.568 68.5576 166.987C68.5655 166.868 68.5601 166.748 68.5416 166.632C69.946 163.661 71.3078 160.658 71.8467 157.141C71.9558 156.535 71.9891 155.904 71.9449 155.281C71.8733 154.564 71.6317 153.914 71.4989 153.221C71.2653 151.995 71.3742 150.696 71.4405 149.426C71.717 143.831 71.0943 138.218 69.6247 133.06C69.2664 131.817 68.8575 130.558 68.7328 129.232C68.9166 128.704 69.2296 128.302 69.6062 128.113C70.4769 127.675 71.0477 128.356 71.1751 129.594C71.3875 131.701 71.2653 133.852 71.5441 135.967C71.8018 137.945 72.1923 139.879 72.7095 141.738C73.1794 143.419 73.7501 145.044 74.1112 146.785C74.383 148.22 74.5774 149.685 74.6925 151.166C75.0562 155.117 75.335 159.212 74.5306 163Z" fill="black"/>
<path opacity="0.1" d="M96.9541 186.922C96.8745 187.349 96.7251 187.741 96.5192 188.06C96.3134 188.379 96.0577 188.616 95.7754 188.75C95.2094 189.01 94.6165 189.113 94.0259 189.052H93.495C91.2274 186.793 88.5013 185.806 85.7964 186.264C84.931 186.42 84.0656 186.722 83.2002 186.603C81.4507 186.364 80.0331 184.476 78.4748 183.269C76.7016 181.956 74.7072 181.467 72.7476 181.866C70.7879 182.264 68.9524 183.533 67.4765 185.508L67.3252 185.707C67.3034 185.548 67.2892 185.387 67.2827 185.225C67.2349 183.787 67.5774 182.959 68.3632 182.182C70.694 179.872 73.5371 178.286 76.1971 177.096C77.6112 176.425 79.072 176 80.5508 175.829C82.6427 175.646 84.7319 176.227 86.768 176.964C89.2714 177.892 91.7482 179.119 93.9675 181.083C95.048 182.05 96.1099 183.245 96.6965 184.942C96.9307 185.538 97.0216 186.237 96.9541 186.922Z" fill="black"/>
<path d="M102.909 143.292L102.871 143.435C102.277 145.749 101.183 147.705 100.482 149.959C99.5982 152.815 99.3806 156.017 99.1841 159.156C99.0142 161.845 98.847 164.549 98.9824 167.245C99.3222 173.889 101.486 180.19 102.064 186.706C102.207 188.211 102.244 189.735 102.173 191.251C102.125 192.211 102.009 193.242 101.584 193.951C101.159 194.66 100.334 194.939 99.877 194.258C100.081 193.673 100.288 193.091 100.496 192.506C99.2823 191.092 97.4559 192.107 96.0383 191.223C95.4145 190.825 94.9154 190.108 94.3924 189.467C93.1988 188.011 91.8233 186.927 90.3467 186.28C88.8701 185.633 87.3222 185.435 85.7939 185.699C84.9285 185.858 84.0631 186.161 83.1976 186.041C81.4482 185.798 80.0306 183.914 78.4723 182.707C76.6992 181.394 74.7051 180.905 72.7456 181.304C70.7861 181.702 68.9505 182.969 67.474 184.942C67.1023 185.46 66.6032 186.065 66.1466 185.738C65.9702 185.576 65.8276 185.343 65.7352 185.065C63.9963 180.608 65.2759 174.861 67.1342 170.519C68.9925 166.178 71.4533 162.175 72.2179 157.145C72.3283 156.539 72.3616 155.908 72.3161 155.285C72.2444 154.568 72.0029 153.918 71.8701 153.225C71.6365 151.999 71.7454 150.7 71.8117 149.43C72.0903 143.834 71.4694 138.22 70.0012 133.06C69.5765 131.574 69.0721 130.068 69.0721 128.455C69.0721 125.914 70.2853 123.807 71.2888 121.764C72.4435 119.414 73.4125 116.813 74.8752 114.881C76.261 113.045 78.2679 111.922 79.9828 112.854C82.8968 111.792 85.8962 111.354 88.8919 111.551C89.9272 111.623 90.9971 111.786 91.905 112.539C92.8766 113.336 93.5748 114.754 94.5305 115.602C95.2286 116.227 96.033 116.522 96.7923 116.96C98.8887 118.189 100.619 120.511 101.666 123.5C102.728 126.587 102.994 130.136 103.227 133.593C103.45 136.847 103.663 140.229 102.909 143.292Z" fill="#5661B3"/>
<path opacity="0.1" d="M98.9824 167.245C99.3222 173.889 101.486 180.19 102.064 186.706C100.907 185.237 99.2956 183.759 99.0806 182.05C98.8417 180.202 98.0771 177.78 97.9497 175.912C97.8223 174.044 98.6957 171.762 97.7798 170.48C97.3338 169.854 98.5204 170.03 98.0851 169.388C97.1055 167.958 96.8639 165.756 96.8029 163.713C96.6993 160.096 97.0046 156.44 96.5613 152.883C96.2958 150.688 95.741 148.597 95.2977 146.466C94.7826 143.985 94.411 141.444 94.0393 138.899C93.6736 136.636 93.4075 134.339 93.2429 132.024C93.1288 130.032 93.1819 127.921 93.7739 126.105C94.3659 124.289 95.5631 122.815 96.9064 122.843C101.398 122.931 100.623 132.068 101.61 136.29C102.006 137.971 102.54 139.596 102.755 141.348C102.833 142.035 102.876 142.73 102.882 143.427C102.287 145.741 101.194 147.697 100.493 149.951C99.6089 152.807 99.3912 156.009 99.1947 159.148C99.0142 161.845 98.847 164.549 98.9824 167.245Z" fill="black"/>
<path d="M101.902 136.186C102.298 137.867 102.831 139.492 103.046 141.245C103.405 144.18 102.85 147.299 103.453 150.143C103.61 150.75 103.741 151.371 103.846 152.003C103.949 152.907 103.83 153.831 103.83 154.751C103.83 156.233 104.14 157.667 104.416 159.088C105.35 163.921 105.968 168.878 106.261 173.889C106.305 175.236 106.447 176.572 106.683 177.872C106.795 178.313 106.891 178.762 106.97 179.218C107.041 179.827 107.058 180.447 107.021 181.063C106.949 183.014 106.803 184.974 106.949 186.918C107.095 188.861 107.567 190.833 108.542 192.135C107.671 192.418 106.75 192.701 105.9 192.283C104.706 191.697 103.989 189.893 103.381 188.252C102.611 186.157 99.6856 184.269 99.383 181.915C99.1467 180.071 98.3822 177.649 98.2548 175.777C98.1274 173.905 98.9981 171.631 98.0822 170.348C97.6389 169.723 98.8255 169.894 98.3875 169.257C97.4106 167.827 97.169 165.625 97.108 163.577C97.0044 159.965 97.3071 156.308 96.8664 152.752C96.6009 150.557 96.0461 148.466 95.6028 146.331C95.0877 143.854 94.7161 141.312 94.3444 138.763C93.9776 136.501 93.7115 134.204 93.548 131.889C93.4339 129.897 93.4843 127.782 94.079 125.966C94.6736 124.15 95.8709 122.68 97.2115 122.704C101.685 122.823 100.915 131.964 101.902 136.186Z" fill="#5661B3"/>
<path opacity="0.1" d="M89.1016 137.743C89.521 138.48 90.0599 139.289 90.6944 139.145C90.6462 139.26 90.57 139.342 90.4822 139.373C90.3943 139.404 90.3018 139.383 90.2245 139.313C90.0722 139.161 89.9502 138.951 89.8714 138.703L88.9635 136.405C88.8441 136.106 88.0211 134.366 87.8194 135.37C87.7397 135.796 88.8972 137.385 89.1016 137.743Z" fill="black"/>
<path opacity="0.1" d="M88.6129 143.475C88.5868 142.724 88.3759 142.014 88.0209 141.483C87.7018 141.049 87.3295 140.712 86.9246 140.492C85.929 139.878 84.7504 139.384 83.6699 139.464C84.0628 140.324 85.3238 140.838 85.9556 141.324C86.8511 142.017 87.7369 142.734 88.6129 143.475Z" fill="black"/>
<path opacity="0.1" d="M91.4402 159.789C91.2571 161.828 90.1448 163.374 89.0192 164.569C87.8936 165.764 86.6299 166.791 85.8946 168.52C85.3849 169.715 85.1566 171.101 84.7239 172.348C84.246 173.722 83.5319 174.877 82.9612 176.167C82.3904 177.458 81.9444 178.999 82.1196 180.529C82.1222 180.599 82.1343 180.668 82.1553 180.731C82.1763 180.794 82.2057 180.85 82.2418 180.895C82.2965 180.93 82.3562 180.943 82.4152 180.933C82.4742 180.923 82.5306 180.891 82.5789 180.839C83.7363 179.931 84.193 177.856 84.6788 176.06C85.1888 174.247 85.763 172.476 86.399 170.754C86.6857 169.958 87.0016 169.089 87.5352 168.647C87.9005 168.419 88.2746 168.223 88.6555 168.062C89.1957 167.69 89.6696 167.132 90.0386 166.433C91.4877 163.839 92.2444 160.531 92.1623 157.148C92.1464 156.436 92.1198 153.002 91.4057 154.062C90.6916 155.121 91.5624 158.403 91.4402 159.789Z" fill="black"/>
<path d="M93.1902 81.5753C95.4732 83.0689 97.4377 86.3549 97.366 90.079C97.305 93.9903 95.1228 97.6745 95.8741 101.423C96.3095 103.597 97.6209 105.055 98.6588 106.708C102.612 112.985 102.604 123.942 98.6376 130.208C97.1191 132.597 95.1679 134.298 93.5619 136.58C87.8994 144.586 87.6579 158.435 90.6895 169.185C88.3667 169.939 85.9991 170.339 83.6227 170.38C82.5104 170.38 81.1486 170.097 80.7451 168.54C80.3734 167.102 81.0105 165.158 80.2778 164.095C79.9327 163.597 79.4151 163.529 78.9505 163.414C75.9613 162.689 73.5084 159.108 72.3881 154.89C71.2679 150.672 71.3263 145.924 71.9687 141.487C72.4253 138.281 73.1394 134.752 72.0802 131.884C70.7529 128.276 66.9354 126.754 66.9938 122.628C67.0416 119.246 69.6989 117.601 71.2068 115.088C73.9889 110.46 72.6642 103.279 72.6589 97.0412C72.6589 91.5527 73.9385 85.8889 76.6622 82.2325C80.7132 76.7479 88.5153 78.5283 93.1902 81.5753Z" fill="#A26565"/>
<g opacity="0.1">
<path opacity="0.1" d="M72.5157 127.794C71.3503 124.64 68.2894 123.078 67.578 119.976C67.2221 120.7 67.022 121.57 67.0046 122.469C66.9462 126.595 70.7583 128.117 72.0909 131.729C72.5286 133.008 72.7128 134.449 72.6219 135.88C73.0413 133.107 73.4103 130.216 72.5157 127.794Z" fill="black"/>
<path opacity="0.1" d="M96.1794 96.3165C96.6572 94.2255 97.3501 92.1145 97.3846 89.9438C97.3894 89.7086 97.385 89.4732 97.3713 89.2388C96.8378 91.6365 96.0201 93.9626 96.1794 96.3165Z" fill="black"/>
<path opacity="0.1" d="M72.9723 107.457C73.8855 103.128 73.0971 97.7585 73.0944 92.9551C73.0944 92.3736 73.1103 91.7881 73.1395 91.2065C72.825 93.0629 72.6662 94.9709 72.667 96.8863C72.6723 100.316 73.0732 104.036 72.9723 107.457Z" fill="black"/>
<path opacity="0.1" d="M99.0811 126.133C97.5626 128.523 95.6114 130.224 94.0053 132.506C91.1383 136.557 89.6649 142.105 89.2959 147.988C89.9808 143.607 91.3639 139.572 93.5806 136.437C95.1734 134.167 97.1378 132.474 98.6563 130.065C100.463 127.111 101.511 123.292 101.616 119.287C101.158 121.846 100.287 124.197 99.0811 126.133Z" fill="black"/>
<path opacity="0.1" d="M84.0662 166.294C82.9539 166.294 81.592 166.007 81.1885 164.45C80.8169 163.016 81.454 161.072 80.7213 160.005C80.3762 159.507 79.8559 159.439 79.394 159.323C76.4075 158.603 73.9545 155.018 72.8343 150.804C72.0087 147.689 71.8308 144.292 72.0379 140.938C72.0166 141.069 71.998 141.201 71.9794 141.336C71.3476 145.773 71.2813 150.525 72.3989 154.743C73.5165 158.961 75.9721 162.542 78.9586 163.263C79.4311 163.378 79.9515 163.45 80.2859 163.944C81.0266 165.011 80.3815 166.955 80.7532 168.389C81.1567 169.946 82.5185 170.253 83.6308 170.233C86.0072 170.192 88.3747 169.791 90.6976 169.038C90.37 167.876 90.0837 166.689 89.8401 165.481C87.9336 165.99 86.0025 166.261 84.0662 166.294Z" fill="black"/>
</g>
<path opacity="0.1" d="M92.7594 148.924C93.4151 149.665 94.1266 146.841 93.7204 146.136C93.6116 146.319 92.6585 148.82 92.7594 148.924Z" fill="black"/>
<path opacity="0.1" d="M95.5557 200.042C96.3282 199.643 97.1485 199.245 97.6529 198.289C98.0696 197.52 98.4121 194.469 97.5307 195.931C96.7821 197.186 96.4291 198.839 95.5557 200.042Z" fill="black"/>
<path opacity="0.1" d="M103.421 196.843C103.328 197.783 103.156 198.759 102.712 199.436C102.63 199.563 102.447 199.643 102.423 199.472C102.918 199.076 103.378 198.589 103.793 198.022C104.69 196.688 104.812 193.402 103.445 192.529C103.432 193.971 103.567 195.377 103.421 196.843Z" fill="black"/>
<path d="M112.863 190.92C112.863 190.92 105.329 186.479 102.606 186.937C99.882 187.395 105.69 193.836 105.69 193.836L109.163 197.349C109.163 197.349 111.287 196.154 111.427 196.062C111.568 195.971 112.863 190.92 112.863 190.92Z" fill="#454B69"/>
<path d="M61.0254 143.276C61.0254 143.276 66.6852 138.353 74.1554 144.471C81.6257 150.589 82.8708 186.591 82.8708 186.591C82.8708 186.591 79.8152 223.27 91.5967 215.109C91.5967 215.109 113.1 205.092 115.253 207.299C115.253 207.299 117.291 207.298 113.216 208.657C109.141 210.015 93.3992 217.499 93.3992 217.499C93.3992 217.499 88.3102 220.168 86.1546 217.499C83.999 214.83 77.8906 217.841 77.0968 199.496C76.5715 187.935 75.6268 176.426 74.2669 165.019L72.1671 155.679L61.0254 143.276Z" fill="#565661"/>
<path d="M60.3462 200.001C60.3462 200.001 62.8363 162.808 58.7534 149.39C55.2014 137.696 68.9367 143.164 72.5205 144.757C73.0752 145.006 73.5589 145.525 73.8957 146.231C76.0194 150.712 83.6383 168.671 81.3925 192.701C81.3925 192.701 80.4872 214.101 86.147 217.495L68.7084 209.067C67.2935 208.382 65.8573 207.812 64.4078 207.318C62.5602 206.689 59.5498 204.9 60.3462 200.001Z" fill="white"/>
<path d="M184.375 269.437H186.639L188.123 223.776L188.224 221.179L186.3 220.164L186.172 222.924L184.375 269.437Z" fill="#565661"/>
<path opacity="0.1" d="M186.173 222.924L188.124 223.776L188.225 221.179L186.3 220.164L186.173 222.924Z" fill="black"/>
<path d="M165.469 251.804C165.413 252.43 165.306 253.043 165.15 253.629C164.989 254.394 164.643 255.042 164.181 255.445C163.87 255.637 163.538 255.736 163.201 255.736C161.951 255.847 160.629 255.819 159.554 254.863C159.096 254.421 158.676 253.895 158.304 253.298C155.888 249.696 153.691 245.777 151.741 241.588C151.415 240.883 151.077 240.051 151.224 239.198C153.75 238.147 156.148 236.5 158.33 234.319C158.631 233.973 158.968 233.703 159.328 233.523C159.944 233.325 160.578 233.29 161.202 233.419C161.805 233.566 161.832 233.594 162.063 234.614C162.445 236.339 162.381 238.199 162.811 239.923C163.084 240.876 163.417 241.788 163.804 242.648C164.914 245.432 165.766 248.718 165.469 251.804Z" fill="#A26565"/>
<path opacity="0.1" d="M165.469 251.804C165.413 252.43 165.306 253.043 165.15 253.629C164.989 254.394 164.643 255.042 164.181 255.445C163.87 255.637 163.537 255.736 163.201 255.736C161.951 255.847 160.629 255.819 159.554 254.863C159.096 254.421 158.676 253.895 158.304 253.298C155.888 249.696 153.691 245.777 151.741 241.588C151.415 240.883 151.077 240.051 151.224 239.198C152.048 238.856 152.859 238.449 153.655 237.979L153.695 238.023C154.51 238.896 155.102 240.146 155.678 241.373L157.536 245.296C157.868 246.067 158.259 246.775 158.702 247.407C159.251 248.069 159.857 248.615 160.504 249.032C161.378 249.666 162.251 250.299 163.159 250.809C163.746 251.163 164.738 251.303 165.469 251.804Z" fill="black"/>
<path d="M167.184 209.27C167.001 209.932 166.779 210.568 166.52 211.17C164.053 217.386 162.15 224.069 160.861 231.041C160.494 230.918 160.287 231.666 160.29 232.236C160.293 232.806 160.29 233.522 159.939 233.73C159.836 233.789 159.719 233.789 159.618 233.857C159.395 234.008 159.332 234.435 159.3 234.801L158.986 238.25C158.878 239.445 158.782 240.74 159.172 241.795C159.441 242.422 159.791 242.964 160.2 243.388L165.382 249.522C165.594 249.773 165.857 250.04 166.112 249.9C166.693 249.582 166.178 248.021 166.643 247.387C166.95 246.953 167.439 247.28 167.866 247.228C168.424 247.164 168.846 246.395 168.987 245.587C169.085 244.764 169.095 243.922 169.016 243.094C168.981 242.716 169.01 242.331 169.101 241.974C169.259 241.597 169.477 241.283 169.735 241.062C170.634 240.077 171.359 238.776 171.845 237.274C172.332 235.771 172.565 234.112 172.525 232.443C172.483 231.935 172.496 231.42 172.562 230.918C172.67 230.458 172.833 230.031 173.043 229.659C174.925 225.839 176.494 221.693 178.052 217.555C178.95 215.165 179.863 212.739 180.176 210.047C180.203 209.947 180.215 209.838 180.209 209.73C180.203 209.623 180.181 209.518 180.144 209.425C180.107 209.333 180.056 209.254 179.995 209.196C179.934 209.138 179.866 209.102 179.794 209.091C179.016 208.727 178.224 208.442 177.421 208.238C174.981 207.498 172.626 206.355 170.253 205.255C167.88 204.156 167.898 206.394 167.184 209.27Z" fill="#454B69"/>
<path d="M155.963 279.096L159.701 279.773L176.906 221.179L181.546 220.669L189.699 224.238L191.281 294H195.016L193.545 221.689L202.489 222.031L218.449 281.641H221.844L205.059 211.974L204.413 209.29L179.396 208.003L173.16 213.249L173.08 213.552L155.963 279.096Z" fill="#565661"/>
<path opacity="0.1" d="M173.08 213.552C178.456 215.981 184.036 218.634 184.036 218.634C184.036 218.634 189.125 221.299 191.281 218.634C191.552 218.316 191.856 218.064 192.18 217.889C191.901 218.189 191.599 218.439 191.281 218.634L205.058 211.97L204.421 209.29L179.404 208.003L173.168 213.249L173.08 213.552Z" fill="black"/>
<path d="M198.525 201.989L188.339 198.592C188.339 198.592 164.001 205.387 162.19 208.103C162.19 208.103 181.66 214.046 183.81 216.069C185.96 218.092 198.753 220.331 198.525 201.989Z" fill="white"/>
<path d="M160.727 256.588C160.114 258.34 158.603 258.834 157.276 258.862C155.433 258.896 153.603 258.405 151.882 257.416C150.9 256.85 149.957 256.122 148.943 255.707C147.433 255.086 145.757 255.138 144.43 253.891C143.726 253.187 143.145 252.241 142.734 251.131C142.657 250.936 142.582 250.733 142.513 250.525C141.879 248.673 141.584 246.519 141.937 244.519C142.29 242.52 143.573 240.317 145.059 240.349C146.825 240.389 148.93 241.643 150.634 242.293C152.758 243.089 154.882 244.009 156.758 245.694C158.33 247.112 159.718 249.147 160.459 251.633C160.601 252.112 160.719 252.608 160.81 253.114C161.04 254.262 161.094 255.54 160.727 256.588Z" fill="#A26565"/>
<path opacity="0.1" d="M160.727 256.588C160.114 258.341 158.604 258.834 157.276 258.862C155.433 258.896 153.603 258.406 151.882 257.416C150.9 256.851 149.957 256.122 148.943 255.708C147.433 255.086 145.758 255.138 144.43 253.892C143.726 253.187 143.145 252.241 142.734 251.131C142.657 250.936 142.583 250.733 142.514 250.526C142.779 250.558 143.023 250.598 143.156 250.618C144.786 250.853 146.342 251.745 147.897 252.418C150.057 253.354 152.287 253.876 154.534 253.971C156.127 254.039 157.789 253.864 159.18 252.697C159.595 252.303 160.026 251.948 160.47 251.633C160.612 252.113 160.729 252.608 160.82 253.115C161.041 254.262 161.094 255.54 160.727 256.588Z" fill="black"/>
<path d="M172.135 180.855C168.683 180.007 165.169 179.8 161.67 179.593L157.39 179.338C157.086 179.285 156.778 179.341 156.49 179.501C156.243 179.74 156.008 180.006 155.787 180.298C155.357 180.736 154.807 180.784 154.29 180.827C150.618 181.131 146.965 181.842 143.363 182.954C141.505 183.524 139.575 184.269 138.179 186.192C136.703 188.228 136.055 191.331 136.004 194.334C135.954 197.337 136.48 200.288 137.034 203.172C137.741 206.643 138.131 210.242 138.194 213.87C138.17 214.877 138.195 215.885 138.271 216.885C138.395 217.841 138.583 218.775 138.832 219.673L140.785 227.5C140.958 228.185 141.128 228.866 141.316 229.535C141.505 230.204 141.685 230.73 141.847 231.36C142.086 232.22 142.275 233.112 142.463 234L143.764 240.13L143.934 240.927C144.404 243.133 144.884 245.38 145.771 247.276C146.658 249.171 148.03 250.701 149.572 250.816C150.07 250.788 150.568 250.808 151.064 250.876C151.487 251.031 151.897 251.254 152.288 251.541C153.446 252.263 154.69 252.628 155.944 252.613C157.098 252.613 158.381 252.131 159.007 250.673C159.352 249.876 159.442 248.897 159.538 247.957C159.705 246.069 159.867 244.097 159.44 242.305C159.174 241.233 158.728 240.313 158.42 239.258C157.99 237.82 157.85 236.231 157.571 234.713C156.968 231.447 155.74 228.517 154.04 226.285C153.436 222.698 152.993 219.055 152.713 215.38C152.674 214.566 152.566 213.763 152.392 212.99C152.081 211.795 151.452 210.827 151.189 209.608C150.942 208.477 151.017 207.171 150.568 206.195C154.303 207.736 158.001 207.39 161.879 207.298C163.121 207.304 164.363 207.198 165.596 206.98C166.171 206.821 166.753 206.728 167.338 206.701C168.537 206.701 169.663 207.497 170.765 208.198C173.879 210.19 177.16 211.755 180.542 211.97C184.033 212.189 187.484 210.959 190.895 209.74C192.395 209.202 193.953 208.621 195.143 207.143C196.332 205.665 197.001 203.001 196.268 200.973C195.711 199.448 194.556 198.699 193.478 198.062C190.494 196.293 187.494 194.569 184.619 192.43C180.229 189.22 176.945 182.05 172.135 180.855Z" fill="#454B69"/>
<path d="M165.981 162.836C165.564 164.19 164.863 165.298 164.346 166.572C163.48 168.67 163.194 171.193 163.549 173.602C163.736 174.793 164.102 175.904 164.62 176.85C165.138 177.795 165.793 178.549 166.536 179.055C167.199 179.451 167.896 179.703 168.607 179.804C169.541 179.975 170.537 180.011 171.362 179.334C171.98 178.777 172.487 177.982 172.83 177.032C173.544 175.239 173.95 173.22 174.322 171.208C175.01 167.496 175.596 163.689 175.511 159.837C175.482 158.511 175.307 157.017 174.574 156.252C174.196 155.925 173.777 155.718 173.343 155.647L169.841 154.707C169.164 154.524 167.983 153.779 167.396 154.512C166.809 155.245 166.764 157.411 166.663 158.427C166.504 159.929 166.406 161.454 165.981 162.836Z" fill="#A1616A"/>
<path d="M208.543 147.43L207.627 158.949C207.438 161.003 207.329 163.073 207.301 165.146C207.301 166.301 207.325 167.584 206.815 168.448C206.566 168.842 206.25 169.126 205.902 169.273C204.79 169.791 203.576 169.329 202.515 168.616C201.893 168.217 201.259 167.64 200.977 166.712C200.814 166.068 200.746 165.379 200.778 164.692C200.778 157.822 201.211 150.656 203.603 144.801C203.807 144.227 204.095 143.729 204.444 143.344C205.108 142.706 205.976 142.886 206.727 143.232C207.189 143.443 208.437 143.678 208.732 144.296C209.026 144.913 208.607 146.637 208.543 147.43Z" fill="#A1616A"/>
<path d="M184.245 105.776C189.523 105.776 193.802 99.3564 193.802 91.4374C193.802 83.5183 189.523 77.0986 184.245 77.0986C178.967 77.0986 174.688 83.5183 174.688 91.4374C174.688 99.3564 178.967 105.776 184.245 105.776Z" fill="#A1616A"/>
<path d="M181.689 112.806C181.655 113.921 181.452 115.011 181.097 115.992C185.977 114.877 190.844 113.634 195.698 112.264C194.087 111.022 192.87 108.874 192.311 106.29C192.047 104.904 191.902 103.473 191.881 102.032C191.804 99.7468 191.833 97.4563 191.968 95.1772C190.269 95.4441 188.661 96.4 187.041 97.2205C185.413 98.0461 183.757 98.7414 182.08 99.3036C181.27 99.5745 180.455 99.8055 179.637 100.021C178.682 100.275 178.222 100.271 178.886 101.53C180.667 104.892 181.939 108.309 181.689 112.806Z" fill="#A1616A"/>
<path d="M184.625 110.89C183.364 111.173 182.042 111.492 181.035 112.663C180.652 113.156 180.288 113.681 179.944 114.236C177.945 117.147 175.123 118.318 172.697 120.374C172.301 120.667 171.951 121.081 171.667 121.589C171.402 122.142 171.266 122.847 170.987 123.397C170.664 124.034 170.151 124.432 169.899 125.137C169.647 125.842 169.703 126.591 169.676 127.34C169.615 128.985 169.201 130.546 168.88 132.12C167.406 139.651 168.213 148.051 165.983 155.165C166.086 155.575 166.243 155.949 166.444 156.265C166.646 156.582 166.888 156.833 167.157 157.005C167.718 157.308 168.304 157.497 168.898 157.567L173.839 158.487C174.545 158.618 175.293 158.742 175.938 158.3C175.348 160.74 174.931 163.268 174.693 165.839C174.573 167.412 174.387 168.971 174.136 170.507C173.456 174.013 171.747 176.932 169.721 178.928C169.466 179.128 169.251 179.426 169.097 179.792C168.832 180.588 169.225 181.481 169.503 182.261C170.313 184.524 170.202 187.24 170.191 189.805C170.18 192.37 170.353 195.186 171.548 197.026C172.254 198.114 173.22 198.703 174.16 199.265L181.888 203.897C183.163 204.712 184.478 205.377 185.822 205.888C187.858 206.585 189.974 206.557 192.063 206.422C193.443 206.334 194.822 206.202 196.199 206.024C196.747 206.021 197.285 205.809 197.763 205.406C198.174 204.92 198.49 204.276 198.678 203.542C199.754 200.033 200.115 195.939 201.782 192.999C202.926 190.98 204.702 189.367 204.832 186.726C204.893 185.412 204.503 184.133 204.497 182.815C204.497 181.194 205.063 179.652 205.028 178.035C204.957 175.403 203.303 173.395 203.04 170.79C202.371 164.187 204.606 157.591 205.979 151.238C206.226 150.103 206.544 148.848 207.272 148.362C207.999 147.876 209.024 148.131 209.284 147.056C209.94 144.355 210.096 141.189 210.011 138.317C209.963 136.656 209.571 135.031 209.616 133.366C209.648 132.195 209.897 131.056 209.963 129.889C210.064 128.125 209.754 126.372 209.433 124.667C209.34 124.059 209.201 123.468 209.018 122.907C208.822 122.398 208.591 121.921 208.328 121.485L207.035 119.179C206.43 118.099 205.79 116.98 204.912 116.435C204.628 115.379 203.72 114.65 203.069 114.069C202.414 113.51 201.736 113.012 201.041 112.575L193.73 107.732C193.457 107.525 193.164 107.383 192.862 107.31C192.417 107.287 191.975 107.424 191.572 107.708C189.342 109.034 187.014 110.356 184.625 110.89Z" fill="#5661B3"/>
<path d="M176.882 93.9309C176.6 92.4453 175.881 91.1628 175.772 89.6253C175.674 88.2592 176.075 86.9368 176.303 85.6065C176.531 84.2762 176.523 82.6511 175.82 81.7669C175.703 81.6155 175.554 81.4801 175.512 81.2571C175.427 80.8588 175.695 80.4963 175.777 80.094C175.929 79.2974 175.273 78.4172 175.512 77.6525C175.647 77.2343 175.987 77.0869 176.284 76.9555C177.421 76.4496 178.573 75.3264 178.82 73.5858C179.709 74.1435 180.657 73.0959 181.339 72.0803C182.021 71.0646 182.86 69.9056 183.8 70.2123L183.59 70.8535C185.039 70.0642 186.624 70.0375 188.085 70.7778H187.639C188.92 70.8104 190.162 71.4411 191.193 72.5821C191.079 72.5821 191.068 72.8371 191.114 72.9804C191.485 74.2829 192.441 74.9719 193.362 75.2946C193.917 75.4937 194.519 75.6371 194.926 76.2345C195.332 76.832 195.34 78.0787 194.804 78.3654C195.897 79.0042 196.933 79.8473 197.886 80.8747C198.151 81.1655 198.451 81.5598 198.417 82.0696C198.379 82.3256 198.323 82.5751 198.252 82.8144C198.199 83.2396 198.218 83.6779 198.308 84.089L198.602 85.9132C198.926 87.9405 199.181 90.3821 198.196 91.8518C198.565 92.8853 198.702 94.0696 198.586 95.229C198.471 96.3884 198.11 97.4612 197.556 98.2883C197.635 98.6442 197.662 99.0208 197.636 99.3934C197.61 99.7661 197.531 100.126 197.406 100.45C197.281 100.774 197.111 101.055 196.908 101.273C196.705 101.492 196.474 101.643 196.229 101.718C196.556 102.482 196.256 103.574 195.741 104.052C195.226 104.53 194.578 104.534 193.978 104.45C193.378 104.366 192.77 104.163 192.17 104.299C191.297 104.502 190.442 105.394 189.6 104.996C189.287 104.794 188.986 104.552 188.7 104.271C188.111 103.797 187.426 103.689 186.773 103.474C185.66 103.115 184.603 102.439 183.659 101.483C183.034 100.919 182.535 100.086 182.228 99.0929C181.644 96.8783 182.627 93.9747 181.594 92.1705C180.989 91.1189 179.789 91.103 179.112 92.0032C178.775 92.4533 178.729 93.4012 178.379 93.7397C177.89 93.9253 177.384 93.9899 176.882 93.9309Z" fill="#464353"/>
<path opacity="0.1" d="M163.895 208.139C163.518 207.691 163.192 207.152 162.931 206.546C162.67 205.936 162.566 205.203 162.639 204.486C162.536 205.393 162.575 206.324 162.755 207.204C162.934 208.083 163.248 208.888 163.672 209.553C164.338 210.576 165.589 211.58 166.563 211.23C166.425 210.059 164.514 208.927 163.895 208.139Z" fill="black"/>
<path d="M216.409 144.072C216.409 144.072 210.749 139.149 203.279 145.267C195.809 151.385 194.564 187.387 194.564 187.387C194.564 187.387 197.619 224.067 185.838 215.906C185.838 215.906 164.335 205.888 162.182 208.095C162.182 208.095 160.143 208.095 164.218 209.453C168.293 210.811 184.035 218.295 184.035 218.295C184.035 218.295 189.124 220.964 191.28 218.295C193.435 215.627 199.544 218.638 200.338 200.292C200.863 188.731 201.808 177.222 203.168 165.816L205.267 156.475L216.409 144.072Z" fill="#565661"/>
<path d="M217.089 200.798C217.089 200.798 214.599 163.605 218.682 150.186C222.234 138.492 208.498 143.961 204.915 145.554C204.36 145.803 203.876 146.322 203.539 147.028C201.416 151.509 193.797 169.468 196.043 193.497C196.043 193.497 196.948 214.898 191.288 218.292L208.727 209.864C210.142 209.178 211.578 208.609 213.027 208.115C214.875 207.486 217.885 205.697 217.089 200.798Z" fill="white"/>
<path opacity="0.1" d="M262.806 273.121C277.092 273.121 288.673 270.33 288.673 266.888C288.673 263.445 277.092 260.654 262.806 260.654C248.52 260.654 236.938 263.445 236.938 266.888C236.938 270.33 248.52 273.121 262.806 273.121Z" fill="#5661B3"/>
<path d="M263.636 147.474H261.972V203.702H263.636V147.474Z" fill="#535461"/>
<path d="M274.098 203.531L273.995 206.064L273.846 209.648L273.785 211.138L273.639 214.723L273.575 216.212L273.427 219.797L271.749 260.451C271.672 262.196 271.156 263.832 270.305 265.027C269.454 266.223 268.333 266.888 267.167 266.888H258.441C257.273 266.887 256.15 266.218 255.3 265.018C254.449 263.818 253.936 262.176 253.864 260.428L252.181 219.769L252.035 216.185L251.974 214.695L251.823 211.11L251.762 209.621L251.616 206.036L251.51 203.503C251.491 203.017 251.539 202.531 251.65 202.074C251.761 201.617 251.932 201.199 252.154 200.844C252.376 200.49 252.644 200.207 252.941 200.013C253.238 199.819 253.559 199.717 253.883 199.715H271.728C272.053 199.718 272.375 199.82 272.673 200.016C272.971 200.212 273.24 200.498 273.462 200.855C273.684 201.213 273.855 201.634 273.964 202.094C274.074 202.554 274.119 203.043 274.098 203.531Z" fill="#565661"/>
<path d="M273.995 206.063L273.847 209.636H251.765L251.616 206.063H273.995Z" fill="#9D9CB5"/>
<path d="M273.785 211.13L273.639 214.707H251.974L251.825 211.13H273.785Z" fill="#9D9CB5"/>
<path d="M273.575 216.196L273.427 219.769H252.184L252.035 216.196H273.575Z" fill="#9D9CB5"/>
<path d="M249.073 168.548C258.768 179.071 262.805 195.528 262.805 195.528C262.805 195.528 251.125 194.927 241.427 184.404C231.73 173.881 227.697 157.427 227.697 157.427C227.697 157.427 239.381 158.029 249.073 168.548Z" fill="#5661B3"/>
<path d="M227.697 157.427C227.697 157.427 239.821 167.524 243.713 175.884C247.605 184.245 262.805 195.528 262.805 195.528" stroke="#535461" stroke-width="2" stroke-miterlimit="10"/>
<path d="M255.329 147.351C260.607 153.074 262.805 162.036 262.805 162.036C262.805 162.036 256.434 161.705 251.17 155.982C245.905 150.258 243.71 141.296 243.71 141.296C243.71 141.296 250.055 141.623 255.329 147.351Z" fill="#5661B3"/>
<path d="M243.71 141.296C243.71 141.296 250.309 146.793 252.425 151.341C254.541 155.89 262.818 162.036 262.818 162.036" stroke="#535461" stroke-width="2" stroke-miterlimit="10"/>
<path d="M270.472 161.578C264.411 171.571 263.129 184.631 263.129 184.631C263.129 184.631 271.674 181.485 277.73 171.488C283.785 161.49 285.073 148.434 285.073 148.434C285.073 148.434 276.532 151.585 270.472 161.578Z" fill="#5661B3"/>
<path d="M285.078 148.438C285.078 148.438 277.183 158.682 275.176 165.74C273.169 172.798 263.129 184.631 263.129 184.631" stroke="#535461" stroke-width="2" stroke-miterlimit="10"/>
<path d="M147.86 137.521V138.429H129.912V137.692C130.404 137.415 130.87 137.043 131.298 136.585C132.06 135.766 132.681 134.686 133.11 133.435C133.538 132.184 133.761 130.798 133.761 129.391C133.762 128.656 133.7 127.924 133.578 127.213C133.361 125.932 132.956 124.74 132.392 123.725C131.828 122.709 131.119 121.897 130.318 121.346H147.738C146.937 121.897 146.229 122.709 145.665 123.725C145.101 124.74 144.695 125.932 144.478 127.213C144.357 127.925 144.297 128.657 144.298 129.391C144.297 130.798 144.52 132.184 144.948 133.435C145.376 134.686 145.997 135.766 146.759 136.585C147.103 136.953 147.472 137.267 147.86 137.521Z" fill="#DFE6F5"/>
<path opacity="0.1" d="M147.738 121.346C146.938 121.897 146.229 122.709 145.665 123.725C145.101 124.74 144.695 125.932 144.478 127.213H133.578C133.361 125.932 132.956 124.74 132.392 123.725C131.828 122.709 131.119 121.897 130.318 121.346H147.738Z" fill="black"/>
<path d="M109.362 116.706V121.82C109.362 124.64 110.737 126.93 112.436 126.93H165.241C166.94 126.93 168.317 124.64 168.317 121.82V116.706H109.362Z" fill="#DFE6F5"/>
<path opacity="0.1" d="M147.86 137.52V138.429H129.912V137.692C130.404 137.415 130.87 137.043 131.298 136.584H146.759C147.103 136.953 147.472 137.267 147.86 137.52Z" fill="black"/>
<path d="M152.891 136.867H124.881C124.384 136.867 123.981 137.471 123.981 138.215C123.981 138.96 124.384 139.564 124.881 139.564H152.891C153.388 139.564 153.791 138.96 153.791 138.215C153.791 137.471 153.388 136.867 152.891 136.867Z" fill="#DFE6F5"/>
<path d="M168.317 60.6929C168.317 60.0868 168.238 59.4867 168.083 58.9269C167.928 58.367 167.702 57.8584 167.416 57.4301C167.13 57.0017 166.791 56.6621 166.418 56.4305C166.045 56.199 165.645 56.08 165.241 56.0806H112.436C112.033 56.08 111.633 56.199 111.26 56.4306C110.886 56.6622 110.547 57.0019 110.262 57.4303C109.976 57.8587 109.75 58.3674 109.596 58.9272C109.441 59.487 109.362 60.087 109.362 60.6929V117.701H168.317V60.6929Z" fill="#474157"/>
<path d="M166.708 62.7517V111.742C166.709 112.041 166.67 112.337 166.594 112.612C166.518 112.888 166.407 113.139 166.266 113.35C166.126 113.562 165.959 113.729 165.775 113.844C165.591 113.958 165.394 114.017 165.195 114.017H112.484C112.285 114.017 112.088 113.958 111.904 113.844C111.72 113.729 111.554 113.562 111.413 113.35C111.272 113.139 111.161 112.888 111.085 112.612C111.009 112.337 110.97 112.041 110.971 111.742V62.7517C110.969 62.3532 111.039 61.9613 111.172 61.6166C111.305 61.2713 111.497 60.9845 111.727 60.7852C111.957 60.586 112.218 60.4812 112.484 60.4814H165.195C165.597 60.4814 165.981 60.7206 166.265 61.1464C166.549 61.5722 166.708 62.1496 166.708 62.7517Z" fill="#4C4C78"/>
<path d="M138.84 59.3422C139.231 59.3422 139.548 58.8661 139.548 58.2788C139.548 57.6915 139.231 57.2153 138.84 57.2153C138.448 57.2153 138.131 57.6915 138.131 58.2788C138.131 58.8661 138.448 59.3422 138.84 59.3422Z" fill="white"/>
<path d="M138.839 124.655C139.805 124.655 140.589 123.48 140.589 122.031C140.589 120.581 139.805 119.406 138.839 119.406C137.873 119.406 137.09 120.581 137.09 122.031C137.09 123.48 137.873 124.655 138.839 124.655Z" fill="white"/>
<path d="M166.709 62.7517H110.977C110.977 62.1496 111.136 61.5722 111.42 61.1464C111.704 60.7206 112.088 60.4814 112.49 60.4814H165.196C165.597 60.4814 165.982 60.7206 166.266 61.1464C166.549 61.5722 166.709 62.1496 166.709 62.7517Z" fill="#C8CAD7"/>
<path d="M112.484 62.1865C112.694 62.1865 112.864 61.9315 112.864 61.6169C112.864 61.3024 112.694 61.0474 112.484 61.0474C112.274 61.0474 112.104 61.3024 112.104 61.6169C112.104 61.9315 112.274 62.1865 112.484 62.1865Z" fill="#EDEDF4"/>
<path d="M113.62 62.1865C113.83 62.1865 113.999 61.9315 113.999 61.6169C113.999 61.3024 113.83 61.0474 113.62 61.0474C113.41 61.0474 113.24 61.3024 113.24 61.6169C113.24 61.9315 113.41 62.1865 113.62 62.1865Z" fill="#EDEDF4"/>
<path d="M114.757 62.1865C114.966 62.1865 115.136 61.9315 115.136 61.6169C115.136 61.3024 114.966 61.0474 114.757 61.0474C114.547 61.0474 114.377 61.3024 114.377 61.6169C114.377 61.9315 114.547 62.1865 114.757 62.1865Z" fill="#EDEDF4"/>
</g>
<defs>
<linearGradient id="paint0_linear_5_7" x1="102.59" y1="186.3" x2="103.206" y2="186.3" gradientUnits="userSpaceOnUse">
<stop stop-color="#808080" stop-opacity="0.25"/>
<stop offset="0.54" stop-color="#808080" stop-opacity="0.12"/>
<stop offset="1" stop-color="#808080" stop-opacity="0.1"/>
</linearGradient>
<clipPath id="clip0_5_7">
<rect width="300" height="294" fill="white"/>
</clipPath>
</defs>
</svg>
